<svg width="118" height="48" viewBox="0 0 118 48" fill="none" xmlns="http://www.w3.org/2000/svg">
<g clip-path="url(#clip0_4_42)">
<path fill-rule="evenodd" clip-rule="evenodd" d="M9.59558 11.3662V28.6414L-0.000732422 34.4029V0H9.93666L24.0039 8.4348L38.0619 0H47.9993V5.60476L24.0039 20.0038L9.59558 11.3662Z" fill="#FE5E00"></path>
<path fill-rule="evenodd" clip-rule="evenodd" d="M38.403 36.6428V19.3583L47.9993 13.5969V47.9998H38.0619L24.0039 39.565L9.93666 47.9998H-0.000732422V42.395L24.0039 27.9959L38.403 36.6428Z" fill="#1677FF"></path>
<path fill-rule="evenodd" clip-rule="evenodd" d="M59.8815 17.4687L63.7717 22.8799L67.8277 17.4687H70.0955V30.3283H67.6987V21.3128L63.7532 26.6318L59.8999 21.3957V30.3283H57.5032V17.4687H59.8815Z" fill="black"></path>
<path fill-rule="evenodd" clip-rule="evenodd" d="M74.4099 30.1713C73.7923 29.9408 73.2392 29.5905 72.769 29.1388C72.2805 28.6595 71.8841 28.0787 71.6075 27.4518C71.3125 26.7789 71.165 26.0507 71.165 25.3224C71.165 25.2855 71.165 25.2394 71.165 25.1933C71.165 25.1473 71.165 25.1104 71.165 25.0643C71.165 24.3176 71.3125 23.5801 71.6075 22.898C71.8749 22.2711 72.262 21.6996 72.7506 21.2295C73.2207 20.7778 73.7831 20.4182 74.3915 20.1786C74.9907 19.9481 75.6267 19.8283 76.272 19.8283C76.2904 19.8283 76.3089 19.8283 76.3273 19.8283C76.9542 19.8283 77.581 19.9573 78.1526 20.2154C78.7057 20.4551 79.1942 20.8146 79.5814 21.2755V20.0679H81.9597V30.3741H79.5814V29.0282C79.2035 29.5168 78.7057 29.9039 78.1341 30.1528C77.5534 30.4294 76.9173 30.5769 76.272 30.5769H76.2351C75.6175 30.5769 74.9999 30.4478 74.4283 30.1989L74.4007 30.1713H74.4099ZM77.8483 28.1063C78.2171 27.9496 78.5489 27.7192 78.8163 27.4242C79.0928 27.12 79.3141 26.7789 79.4708 26.401C79.6183 26.0138 79.7012 25.599 79.7012 25.1841V25.1473C79.7012 24.7324 79.6275 24.3268 79.4708 23.9396C79.3049 23.5617 79.0836 23.2206 78.8163 22.9164C78.5489 22.6306 78.2171 22.4002 77.8483 22.2527C77.4704 22.096 77.0556 22.0038 76.6407 22.0038C76.2259 22.0038 75.8203 22.0868 75.4331 22.2527C75.0552 22.4002 74.7141 22.6306 74.4376 22.9164C74.1518 23.2022 73.9306 23.5433 73.7831 23.9212C73.6171 24.3176 73.5342 24.7416 73.5342 25.1749C73.5342 25.6082 73.6171 26.0322 73.7831 26.4286C73.9306 26.8066 74.1518 27.1569 74.4376 27.4518C74.7233 27.7376 75.0644 27.9589 75.4331 28.1063C75.8111 28.2631 76.2259 28.3552 76.6407 28.3552C77.0556 28.3552 77.4612 28.2723 77.8483 28.1063Z" fill="black"></path>
<path fill-rule="evenodd" clip-rule="evenodd" d="M85.7669 20.0501V21.5804C86.2002 20.6401 87.1404 20.0317 88.1729 20.0317C88.2558 20.0317 88.3296 20.0317 88.4033 20.0409C88.431 20.0409 88.4494 20.0409 88.4771 20.0409C88.7997 20.0409 89.1132 20.087 89.4266 20.17C89.6939 20.2437 89.9612 20.3543 90.2194 20.4834L89.3252 22.7419C89.1316 22.6221 88.938 22.5207 88.726 22.4377C88.4679 22.3732 88.2005 22.3363 87.9424 22.3363C87.924 22.3363 87.9055 22.3363 87.8871 22.3363C87.8502 22.3363 87.8041 22.3363 87.7673 22.3363C87.2234 22.3363 86.6979 22.5575 86.32 22.9447C85.9605 23.4333 85.7669 24.0232 85.7669 24.6224C85.7669 24.7054 85.7669 24.7976 85.7761 24.8806V30.3839H83.3701V20.0501H85.7761H85.7669Z" fill="black"></path>
<path fill-rule="evenodd" clip-rule="evenodd" d="M93.381 17.3022V24.9903L97.769 20.0216H100.617L96.6351 24.4833L100.756 30.3277H98.1008L95.0219 25.8937L93.381 27.7097V30.3277H91.0027V17.3022H93.381Z" fill="black"></path>
<path fill-rule="evenodd" clip-rule="evenodd" d="M103.328 30.1164C102.691 29.8582 102.102 29.4711 101.622 28.9825C101.143 28.4939 100.765 27.9132 100.516 27.2771C100.249 26.6318 100.11 25.9312 100.11 25.2306V25.1477C100.11 24.4378 100.258 23.7372 100.534 23.092C100.793 22.4559 101.17 21.8659 101.659 21.3866C102.148 20.898 102.728 20.5108 103.364 20.2343C104.019 19.9577 104.729 19.8102 105.439 19.8102H105.466C105.466 19.8102 105.503 19.8102 105.522 19.8102C106.231 19.8102 106.932 19.9393 107.596 20.1974C108.223 20.4463 108.794 20.8242 109.264 21.3036C109.744 21.783 110.121 22.3637 110.37 22.9906C110.629 23.6358 110.758 24.3364 110.758 25.037C110.758 25.0555 110.758 25.0831 110.758 25.1016V25.9957H102.369C102.507 26.6871 102.894 27.314 103.447 27.7565C104.019 28.2082 104.729 28.457 105.466 28.457C105.485 28.457 105.503 28.457 105.522 28.457C105.549 28.457 105.577 28.457 105.595 28.457C106.185 28.457 106.766 28.2819 107.264 27.9593C107.752 27.6274 108.13 27.1757 108.37 26.6318L110.324 27.7565C109.891 28.5769 109.246 29.2683 108.462 29.7661C107.623 30.2731 106.646 30.5404 105.669 30.5404C105.623 30.5404 105.568 30.5404 105.522 30.5404H105.466C104.72 30.5404 103.982 30.3929 103.3 30.1164L103.328 30.0887V30.1164ZM103.586 22.5112C103.06 22.8892 102.673 23.433 102.479 24.0415H108.324C108.186 23.4054 107.835 22.8431 107.328 22.4467C106.803 22.0964 106.185 21.912 105.558 21.912C105.531 21.912 105.494 21.912 105.466 21.912C105.448 21.912 105.439 21.912 105.42 21.912C104.766 21.912 104.139 22.124 103.613 22.5112H103.586Z" fill="black"></path>
<path fill-rule="evenodd" clip-rule="evenodd" d="M112.74 20.0493V18.4821L115.146 16.8413V20.0493H117.248V22.1787H115.146V26.032C115.146 26.0781 115.146 26.1334 115.146 26.1887C115.146 26.5021 115.174 26.8063 115.22 27.1105C115.248 27.3502 115.349 27.5714 115.524 27.7466C115.69 27.9125 115.92 28.0231 116.16 28.0508C116.464 28.0969 116.787 28.1245 117.1 28.1245C117.156 28.1245 117.211 28.1245 117.257 28.1245V30.3646H116.962C116.907 30.3646 116.852 30.3646 116.796 30.3646C116.179 30.3646 115.57 30.2909 114.971 30.1434C114.482 30.0327 114.04 29.7838 113.69 29.4243C113.349 29.0556 113.118 28.5947 113.026 28.1061C112.878 27.4977 112.805 26.8708 112.805 26.2348C112.805 26.1795 112.805 26.1149 112.805 26.0596V22.1603H111.044V20.0585H112.749L112.74 20.0493Z" fill="black"></path>
<path fill-rule="evenodd" clip-rule="evenodd" d="M59.9741 -0.000228882L63.8735 5.41095L67.9203 -0.000228882H70.1973V12.8594H67.8005V3.83461L63.855 9.1536L59.9925 3.92679V12.8594H57.605V-0.000228882H59.9741Z" fill="black"></path>
<path fill-rule="evenodd" clip-rule="evenodd" d="M74.5294 12.6474C73.8841 12.3893 73.3034 11.9929 72.824 11.4951C72.3354 11.0065 71.9483 10.4258 71.6902 9.78971C71.4136 9.13521 71.2661 8.43461 71.2661 7.7248V7.67871C71.2661 6.96889 71.4136 6.25908 71.6902 5.60458C72.5014 3.63185 74.428 2.34128 76.5667 2.34128H76.6128C77.3226 2.34128 78.0324 2.47955 78.6961 2.74689C79.3322 3.02344 79.9129 3.41061 80.4015 3.88996C80.8809 4.38775 81.268 4.96851 81.5446 5.59536C81.8119 6.25908 81.9502 6.95968 81.9502 7.66949V7.70636C81.9502 7.70636 81.9502 7.75246 81.9502 7.77089C81.9502 9.16286 81.3971 10.5087 80.4015 11.4859C79.3967 12.4907 78.0324 13.053 76.6128 13.053C75.8937 13.053 75.1931 12.9055 74.5294 12.629V12.6474ZM77.7835 10.5825C78.143 10.4258 78.4657 10.2045 78.733 9.91877C79.0003 9.62378 79.2216 9.2827 79.3691 8.91397C79.5165 8.54523 79.5995 8.14884 79.5995 7.75246C79.5995 7.73402 79.5995 7.7248 79.5995 7.70636C79.5995 7.69715 79.5995 7.67871 79.5995 7.66949C79.5995 7.25466 79.5258 6.84906 79.3691 6.4711C79.2123 6.11159 79.0003 5.77051 78.733 5.48474C78.4657 5.19897 78.143 4.96851 77.7835 4.82102C77.4148 4.65509 77.0092 4.57212 76.6035 4.57212C76.1979 4.57212 75.7923 4.65509 75.4236 4.82102C75.0641 4.97773 74.7414 5.19897 74.4741 5.48474C74.2068 5.77051 73.9947 6.11159 73.838 6.4711C73.6905 6.84906 73.6076 7.24545 73.6076 7.65105C73.6076 7.66949 73.6076 7.68793 73.6076 7.70636C73.6076 7.7248 73.6076 7.75246 73.6076 7.77089C73.6076 8.15806 73.6813 8.54523 73.838 8.91397C73.9855 9.2827 74.1976 9.62378 74.4741 9.91877C74.7414 10.2045 75.0641 10.435 75.4236 10.5825C75.7923 10.7484 76.1979 10.8314 76.6035 10.8314C77.0092 10.8314 77.4148 10.7484 77.7835 10.5825Z" fill="black"></path>
<path fill-rule="evenodd" clip-rule="evenodd" d="M85.3337 2.5535V3.8072C85.684 3.3555 86.1265 2.98676 86.6427 2.73787C87.1774 2.47054 87.7674 2.33226 88.3666 2.33226C88.385 2.33226 88.4034 2.33226 88.4219 2.33226C88.4956 2.33226 88.5602 2.33226 88.6339 2.33226C89.6848 2.33226 90.6896 2.7563 91.4271 3.50299C92.1277 4.32343 92.5056 5.3651 92.5056 6.44365C92.5056 6.54505 92.5056 6.64645 92.5056 6.73864V12.8504H90.0996V7.00597C90.0996 7.00597 90.0996 6.923 90.0996 6.88613C90.0996 6.24084 89.8876 5.614 89.4912 5.10699C89.0856 4.66451 88.5048 4.41561 87.9056 4.41561C87.8503 4.41561 87.8042 4.41561 87.7489 4.41561C87.7305 4.41561 87.7213 4.41561 87.7028 4.41561C87.076 4.41561 86.4676 4.67372 86.0435 5.13464C85.5826 5.65087 85.3337 6.31459 85.3337 7.00597C85.3337 7.0705 85.3337 7.14424 85.3337 7.20877V12.8688H82.9277V2.5535H85.3429H85.3337Z" fill="black"></path>
<path fill-rule="evenodd" clip-rule="evenodd" d="M96.7739 12.6472C95.4833 12.1309 94.46 11.1077 93.9623 9.8079C93.6949 9.1534 93.5566 8.4528 93.5566 7.74299V7.6969C93.5566 6.98709 93.7041 6.27727 93.9807 5.62277C94.2388 4.9867 94.626 4.40594 95.1145 3.91737C95.6031 3.4288 96.1839 3.04163 96.8199 2.77429C97.4652 2.49774 98.1658 2.35025 98.8756 2.35025H98.9125C98.9125 2.35025 98.9586 2.35025 98.977 2.35025C99.6869 2.35025 100.387 2.47931 101.042 2.73742C101.669 2.98632 102.24 3.36427 102.71 3.84362C103.19 4.32298 103.568 4.90374 103.826 5.53058C104.084 6.17587 104.213 6.86725 104.213 7.56784C104.213 7.5955 104.213 7.62315 104.213 7.64159V8.54499H95.8336C95.9719 9.23637 96.359 9.854 96.9029 10.3057C97.4652 10.7482 98.1658 10.9786 98.8849 10.9786C98.9217 10.9786 98.9678 10.9786 99.0047 10.9786C99.0323 10.9786 99.06 10.9786 99.0784 10.9786C99.6684 10.9786 100.249 10.8035 100.747 10.4808C101.236 10.149 101.613 9.69728 101.853 9.1534L103.807 10.278C102.913 11.9927 101.134 13.0712 99.2075 13.0712C99.1338 13.0712 99.0692 13.0712 98.9955 13.0712C98.9678 13.0712 98.9402 13.0712 98.9125 13.0712C98.175 13.0712 97.456 12.9237 96.7739 12.6472ZM97.0504 5.01436C96.525 5.39231 96.1378 5.93619 95.935 6.5446H101.779C101.641 5.90854 101.272 5.34622 100.756 4.95905C100.231 4.61797 99.6223 4.4336 98.9955 4.4336C98.9586 4.4336 98.9217 4.4336 98.8849 4.4336H98.8388C98.1843 4.4336 97.5574 4.64562 97.032 5.03279V5.00514L97.0504 5.01436Z" fill="black"></path>
<path fill-rule="evenodd" clip-rule="evenodd" d="M107.043 15.3848L108.287 12.3427L104.065 2.55281H106.6L109.467 9.49424L112.187 2.55281H114.685L109.449 15.3848H107.043Z" fill="black"></path>
<path fill-rule="evenodd" clip-rule="evenodd" d="M64.7769 34.9188V37.205H59.8912V40.1641H64.7769V42.4502H59.8912V47.7692H57.4944V34.9188H64.7769Z" fill="black"></path>
<path fill-rule="evenodd" clip-rule="evenodd" d="M72.9259 47.7697V46.5621C72.6033 46.9953 72.1792 47.3456 71.6907 47.5853C71.1744 47.825 70.6029 47.954 70.0314 47.954C70.0129 47.954 69.9853 47.954 69.9668 47.954C69.9023 47.954 69.8378 47.954 69.7825 47.954C68.7592 47.954 67.7821 47.53 67.0815 46.7833C66.3809 45.9629 66.0029 44.912 66.0029 43.8334C66.0029 43.732 66.0029 43.6398 66.0122 43.5384V37.482H68.4181V43.3449C68.4181 43.4002 68.4181 43.4647 68.4181 43.52C68.4181 44.1284 68.6117 44.7276 68.962 45.2254C69.3308 45.6587 69.8654 45.9076 70.437 45.9076C70.5015 45.9076 70.5752 45.9076 70.6398 45.8983H70.6766C71.2943 45.8983 71.875 45.631 72.2899 45.1793C72.7139 44.6446 72.9444 43.9809 72.9444 43.2988C72.9444 43.2342 72.9444 43.1605 72.9444 43.096V37.4728H75.3227V47.7789L72.9536 47.7512L72.9259 47.7697Z" fill="black"></path>
<path fill-rule="evenodd" clip-rule="evenodd" d="M79.1023 37.5V38.7722C79.4526 38.3205 79.8951 37.9517 80.4113 37.7028C80.946 37.4355 81.536 37.2972 82.1352 37.2972C82.1628 37.2972 82.1905 37.2972 82.2181 37.2972C82.2919 37.2972 82.3656 37.2972 82.4302 37.2972C83.4811 37.2972 84.4859 37.7213 85.2233 38.4679C85.9239 39.2884 86.3111 40.3393 86.3111 41.4178C86.3111 41.51 86.3111 41.6114 86.3019 41.7036V47.8154H83.8959V41.9525C83.8959 41.9525 83.8959 41.8695 83.8959 41.8234C83.8959 41.1874 83.6839 40.5605 83.2875 40.0535C82.8819 39.611 82.3103 39.3621 81.7019 39.3621C81.6466 39.3621 81.5913 39.3621 81.536 39.3621H81.4991C80.863 39.3621 80.2638 39.6202 79.8306 40.0812C79.3697 40.5974 79.1208 41.2611 79.1208 41.9525C79.1208 42.017 79.1208 42.0908 79.1208 42.1553V47.8154H76.7424V37.5092H79.0931L79.1023 37.5Z" fill="black"></path>
<path fill-rule="evenodd" clip-rule="evenodd" d="M90.551 47.6128C89.9426 47.3823 89.3803 47.0228 88.9101 46.5711C87.8869 45.5663 87.3062 44.1927 87.3062 42.7547C87.3062 42.7086 87.3062 42.6625 87.3062 42.6256C87.3062 42.5795 87.3062 42.5427 87.3062 42.4966C87.3062 41.7591 87.4536 41.0216 87.7486 40.3395C88.016 39.7126 88.4031 39.1411 88.8917 38.6617C89.3618 38.21 89.9242 37.8505 90.5234 37.6108C91.1226 37.3804 91.7678 37.2605 92.4131 37.2513H92.4408C93.0676 37.2513 93.6945 37.3804 94.2752 37.6293C94.8283 37.8782 95.3077 38.2377 95.7041 38.6986V34.7531H98.1101V47.7879H95.7317V46.442C95.3446 46.9306 94.856 47.3178 94.2845 47.5759C93.7037 47.8524 93.0676 47.9999 92.4316 47.9999H92.3855C91.7586 47.9999 91.1318 47.8709 90.551 47.6312V47.6128ZM94.0171 45.5663C94.3859 45.4096 94.7177 45.1791 94.985 44.8841C95.2616 44.5799 95.4736 44.2388 95.6303 43.8609C95.7778 43.4829 95.8608 43.0773 95.8608 42.6717C95.8608 42.6533 95.8608 42.6348 95.8608 42.6164C95.8608 42.598 95.8608 42.5795 95.8608 42.5611C95.8608 42.1555 95.787 41.7591 95.6303 41.3811C95.4736 41.0032 95.2524 40.6621 94.985 40.3671C94.7085 40.0814 94.3766 39.8509 94.0171 39.6942C93.6299 39.5283 93.2059 39.4453 92.7819 39.4453C91.9522 39.4453 91.1502 39.7771 90.5602 40.3671C90.2745 40.6529 90.0532 40.994 89.9149 41.3627C89.749 41.7591 89.6661 42.1831 89.6661 42.6164C89.6661 43.0497 89.749 43.4737 89.9149 43.8701C90.0532 44.2573 90.2745 44.5984 90.5602 44.8933C90.8368 45.1883 91.1871 45.428 91.565 45.5755C91.943 45.7322 92.3578 45.8244 92.7726 45.8244C93.1967 45.8244 93.6115 45.7414 94.0079 45.5755H94.0171V45.5663Z" fill="black"></path>
<path fill-rule="evenodd" clip-rule="evenodd" d="M59.8815 17.4687L63.7717 22.8799L67.8277 17.4687H70.0955V30.3283H67.6987V21.3128L63.7532 26.6318L59.8999 21.3957V30.3283H57.5032V17.4687H59.8815Z" fill="black"></path>
<path fill-rule="evenodd" clip-rule="evenodd" d="M74.4099 30.1713C73.7923 29.9408 73.2392 29.5905 72.769 29.1388C72.2805 28.6595 71.8841 28.0787 71.6075 27.4518C71.3125 26.7789 71.165 26.0507 71.165 25.3224C71.165 25.2855 71.165 25.2394 71.165 25.1933C71.165 25.1473 71.165 25.1104 71.165 25.0643C71.165 24.3176 71.3125 23.5801 71.6075 22.898C71.8749 22.2711 72.262 21.6996 72.7506 21.2295C73.2207 20.7778 73.7831 20.4182 74.3915 20.1786C74.9907 19.9481 75.6267 19.8283 76.272 19.8283C76.2904 19.8283 76.3089 19.8283 76.3273 19.8283C76.9542 19.8283 77.581 19.9573 78.1526 20.2154C78.7057 20.4551 79.1942 20.8146 79.5814 21.2755V20.0679H81.9597V30.3741H79.5814V29.0282C79.2035 29.5168 78.7057 29.9039 78.1341 30.1528C77.5534 30.4294 76.9173 30.5769 76.272 30.5769H76.2351C75.6175 30.5769 74.9999 30.4478 74.4283 30.1989L74.4007 30.1713H74.4099ZM77.8483 28.1063C78.2171 27.9496 78.5489 27.7192 78.8163 27.4242C79.0928 27.12 79.3141 26.7789 79.4708 26.401C79.6183 26.0138 79.7012 25.599 79.7012 25.1841V25.1473C79.7012 24.7324 79.6275 24.3268 79.4708 23.9396C79.3049 23.5617 79.0836 23.2206 78.8163 22.9164C78.5489 22.6306 78.2171 22.4002 77.8483 22.2527C77.4704 22.096 77.0556 22.0038 76.6407 22.0038C76.2259 22.0038 75.8203 22.0868 75.4331 22.2527C75.0552 22.4002 74.7141 22.6306 74.4376 22.9164C74.1518 23.2022 73.9306 23.5433 73.7831 23.9212C73.6171 24.3176 73.5342 24.7416 73.5342 25.1749C73.5342 25.6082 73.6171 26.0322 73.7831 26.4286C73.9306 26.8066 74.1518 27.1569 74.4376 27.4518C74.7233 27.7376 75.0644 27.9589 75.4331 28.1063C75.8111 28.2631 76.2259 28.3552 76.6407 28.3552C77.0556 28.3552 77.4612 28.2723 77.8483 28.1063Z" fill="black"></path>
<path fill-rule="evenodd" clip-rule="evenodd" d="M85.7669 20.0501V21.5804C86.2002 20.6401 87.1404 20.0317 88.1729 20.0317C88.2558 20.0317 88.3296 20.0317 88.4033 20.0409C88.431 20.0409 88.4494 20.0409 88.4771 20.0409C88.7997 20.0409 89.1132 20.087 89.4266 20.17C89.6939 20.2437 89.9612 20.3543 90.2194 20.4834L89.3252 22.7419C89.1316 22.6221 88.938 22.5207 88.726 22.4377C88.4679 22.3732 88.2005 22.3363 87.9424 22.3363C87.924 22.3363 87.9055 22.3363 87.8871 22.3363C87.8502 22.3363 87.8041 22.3363 87.7673 22.3363C87.2234 22.3363 86.6979 22.5575 86.32 22.9447C85.9605 23.4333 85.7669 24.0232 85.7669 24.6224C85.7669 24.7054 85.7669 24.7976 85.7761 24.8806V30.3839H83.3701V20.0501H85.7761H85.7669Z" fill="black"></path>
<path fill-rule="evenodd" clip-rule="evenodd" d="M93.381 17.3022V24.9903L97.769 20.0216H100.617L96.6351 24.4833L100.756 30.3277H98.1008L95.0219 25.8937L93.381 27.7097V30.3277H91.0027V17.3022H93.381Z" fill="black"></path>
<path fill-rule="evenodd" clip-rule="evenodd" d="M103.328 30.1164C102.691 29.8582 102.102 29.4711 101.622 28.9825C101.143 28.4939 100.765 27.9132 100.516 27.2771C100.249 26.6318 100.11 25.9312 100.11 25.2306V25.1477C100.11 24.4378 100.258 23.7372 100.534 23.092C100.793 22.4559 101.17 21.8659 101.659 21.3866C102.148 20.898 102.728 20.5108 103.364 20.2343C104.019 19.9577 104.729 19.8102 105.439 19.8102H105.466C105.466 19.8102 105.503 19.8102 105.522 19.8102C106.231 19.8102 106.932 19.9393 107.596 20.1974C108.223 20.4463 108.794 20.8242 109.264 21.3036C109.744 21.783 110.121 22.3637 110.37 22.9906C110.629 23.6358 110.758 24.3364 110.758 25.037C110.758 25.0555 110.758 25.0831 110.758 25.1016V25.9957H102.369C102.507 26.6871 102.894 27.314 103.447 27.7565C104.019 28.2082 104.729 28.457 105.466 28.457C105.485 28.457 105.503 28.457 105.522 28.457C105.549 28.457 105.577 28.457 105.595 28.457C106.185 28.457 106.766 28.2819 107.264 27.9593C107.752 27.6274 108.13 27.1757 108.37 26.6318L110.324 27.7565C109.891 28.5769 109.246 29.2683 108.462 29.7661C107.623 30.2731 106.646 30.5404 105.669 30.5404C105.623 30.5404 105.568 30.5404 105.522 30.5404H105.466C104.72 30.5404 103.982 30.3929 103.3 30.1164L103.328 30.0887V30.1164ZM103.586 22.5112C103.06 22.8892 102.673 23.433 102.479 24.0415H108.324C108.186 23.4054 107.835 22.8431 107.328 22.4467C106.803 22.0964 106.185 21.912 105.558 21.912C105.531 21.912 105.494 21.912 105.466 21.912C105.448 21.912 105.439 21.912 105.42 21.912C104.766 21.912 104.139 22.124 103.613 22.5112H103.586Z" fill="black"></path>
<path fill-rule="evenodd" clip-rule="evenodd" d="M112.74 20.0493V18.4821L115.146 16.8413V20.0493H117.248V22.1787H115.146V26.032C115.146 26.0781 115.146 26.1334 115.146 26.1887C115.146 26.5021 115.174 26.8063 115.22 27.1105C115.248 27.3502 115.349 27.5714 115.524 27.7466C115.69 27.9125 115.92 28.0231 116.16 28.0508C116.464 28.0969 116.787 28.1245 117.1 28.1245C117.156 28.1245 117.211 28.1245 117.257 28.1245V30.3646H116.962C116.907 30.3646 116.852 30.3646 116.796 30.3646C116.179 30.3646 115.57 30.2909 114.971 30.1434C114.482 30.0327 114.04 29.7838 113.69 29.4243C113.349 29.0556 113.118 28.5947 113.026 28.1061C112.878 27.4977 112.805 26.8708 112.805 26.2348C112.805 26.1795 112.805 26.1149 112.805 26.0596V22.1603H111.044V20.0585H112.749L112.74 20.0493Z" fill="black"></path>
<path fill-rule="evenodd" clip-rule="evenodd" d="M59.9741 -0.000228882L63.8735 5.41095L67.9203 -0.000228882H70.1973V12.8594H67.8005V3.83461L63.855 9.1536L59.9925 3.92679V12.8594H57.605V-0.000228882H59.9741Z" fill="black"></path>
<path fill-rule="evenodd" clip-rule="evenodd" d="M74.5294 12.6474C73.8841 12.3893 73.3034 11.9929 72.824 11.4951C72.3354 11.0065 71.9483 10.4258 71.6902 9.78971C71.4136 9.13521 71.2661 8.43461 71.2661 7.7248V7.67871C71.2661 6.96889 71.4136 6.25908 71.6902 5.60458C72.5014 3.63185 74.428 2.34128 76.5667 2.34128H76.6128C77.3226 2.34128 78.0324 2.47955 78.6961 2.74689C79.3322 3.02344 79.9129 3.41061 80.4015 3.88996C80.8809 4.38775 81.268 4.96851 81.5446 5.59536C81.8119 6.25908 81.9502 6.95968 81.9502 7.66949V7.70636C81.9502 7.70636 81.9502 7.75246 81.9502 7.77089C81.9502 9.16286 81.3971 10.5087 80.4015 11.4859C79.3967 12.4907 78.0324 13.053 76.6128 13.053C75.8937 13.053 75.1931 12.9055 74.5294 12.629V12.6474ZM77.7835 10.5825C78.143 10.4258 78.4657 10.2045 78.733 9.91877C79.0003 9.62378 79.2216 9.2827 79.3691 8.91397C79.5165 8.54523 79.5995 8.14884 79.5995 7.75246C79.5995 7.73402 79.5995 7.7248 79.5995 7.70636C79.5995 7.69715 79.5995 7.67871 79.5995 7.66949C79.5995 7.25466 79.5258 6.84906 79.3691 6.4711C79.2123 6.11159 79.0003 5.77051 78.733 5.48474C78.4657 5.19897 78.143 4.96851 77.7835 4.82102C77.4148 4.65509 77.0092 4.57212 76.6035 4.57212C76.1979 4.57212 75.7923 4.65509 75.4236 4.82102C75.0641 4.97773 74.7414 5.19897 74.4741 5.48474C74.2068 5.77051 73.9947 6.11159 73.838 6.4711C73.6905 6.84906 73.6076 7.24545 73.6076 7.65105C73.6076 7.66949 73.6076 7.68793 73.6076 7.70636C73.6076 7.7248 73.6076 7.75246 73.6076 7.77089C73.6076 8.15806 73.6813 8.54523 73.838 8.91397C73.9855 9.2827 74.1976 9.62378 74.4741 9.91877C74.7414 10.2045 75.0641 10.435 75.4236 10.5825C75.7923 10.7484 76.1979 10.8314 76.6035 10.8314C77.0092 10.8314 77.4148 10.7484 77.7835 10.5825Z" fill="black"></path>
<path fill-rule="evenodd" clip-rule="evenodd" d="M85.3337 2.5535V3.8072C85.684 3.3555 86.1265 2.98676 86.6427 2.73787C87.1774 2.47054 87.7674 2.33226 88.3666 2.33226C88.385 2.33226 88.4034 2.33226 88.4219 2.33226C88.4956 2.33226 88.5602 2.33226 88.6339 2.33226C89.6848 2.33226 90.6896 2.7563 91.4271 3.50299C92.1277 4.32343 92.5056 5.3651 92.5056 6.44365C92.5056 6.54505 92.5056 6.64645 92.5056 6.73864V12.8504H90.0996V7.00597C90.0996 7.00597 90.0996 6.923 90.0996 6.88613C90.0996 6.24084 89.8876 5.614 89.4912 5.10699C89.0856 4.66451 88.5048 4.41561 87.9056 4.41561C87.8503 4.41561 87.8042 4.41561 87.7489 4.41561C87.7305 4.41561 87.7213 4.41561 87.7028 4.41561C87.076 4.41561 86.4676 4.67372 86.0435 5.13464C85.5826 5.65087 85.3337 6.31459 85.3337 7.00597C85.3337 7.0705 85.3337 7.14424 85.3337 7.20877V12.8688H82.9277V2.5535H85.3429H85.3337Z" fill="black"></path>
<path fill-rule="evenodd" clip-rule="evenodd" d="M96.7739 12.6472C95.4833 12.1309 94.46 11.1077 93.9623 9.8079C93.6949 9.1534 93.5566 8.4528 93.5566 7.74299V7.6969C93.5566 6.98709 93.7041 6.27727 93.9807 5.62277C94.2388 4.9867 94.626 4.40594 95.1145 3.91737C95.6031 3.4288 96.1839 3.04163 96.8199 2.77429C97.4652 2.49774 98.1658 2.35025 98.8756 2.35025H98.9125C98.9125 2.35025 98.9586 2.35025 98.977 2.35025C99.6869 2.35025 100.387 2.47931 101.042 2.73742C101.669 2.98632 102.24 3.36427 102.71 3.84362C103.19 4.32298 103.568 4.90374 103.826 5.53058C104.084 6.17587 104.213 6.86725 104.213 7.56784C104.213 7.5955 104.213 7.62315 104.213 7.64159V8.54499H95.8336C95.9719 9.23637 96.359 9.854 96.9029 10.3057C97.4652 10.7482 98.1658 10.9786 98.8849 10.9786C98.9217 10.9786 98.9678 10.9786 99.0047 10.9786C99.0323 10.9786 99.06 10.9786 99.0784 10.9786C99.6684 10.9786 100.249 10.8035 100.747 10.4808C101.236 10.149 101.613 9.69728 101.853 9.1534L103.807 10.278C102.913 11.9927 101.134 13.0712 99.2075 13.0712C99.1338 13.0712 99.0692 13.0712 98.9955 13.0712C98.9678 13.0712 98.9402 13.0712 98.9125 13.0712C98.175 13.0712 97.456 12.9237 96.7739 12.6472ZM97.0504 5.01436C96.525 5.39231 96.1378 5.93619 95.935 6.5446H101.779C101.641 5.90854 101.272 5.34622 100.756 4.95905C100.231 4.61797 99.6223 4.4336 98.9955 4.4336C98.9586 4.4336 98.9217 4.4336 98.8849 4.4336H98.8388C98.1843 4.4336 97.5574 4.64562 97.032 5.03279V5.00514L97.0504 5.01436Z" fill="black"></path>
<path fill-rule="evenodd" clip-rule="evenodd" d="M107.043 15.3848L108.287 12.3427L104.065 2.55281H106.6L109.467 9.49424L112.187 2.55281H114.685L109.449 15.3848H107.043Z" fill="black"></path>
<path fill-rule="evenodd" clip-rule="evenodd" d="M64.7769 34.9188V37.205H59.8912V40.1641H64.7769V42.4502H59.8912V47.7692H57.4944V34.9188H64.7769Z" fill="black"></path>
<path fill-rule="evenodd" clip-rule="evenodd" d="M72.9259 47.7697V46.5621C72.6033 46.9953 72.1792 47.3456 71.6907 47.5853C71.1744 47.825 70.6029 47.954 70.0314 47.954C70.0129 47.954 69.9853 47.954 69.9668 47.954C69.9023 47.954 69.8378 47.954 69.7825 47.954C68.7592 47.954 67.7821 47.53 67.0815 46.7833C66.3809 45.9629 66.0029 44.912 66.0029 43.8334C66.0029 43.732 66.0029 43.6398 66.0122 43.5384V37.482H68.4181V43.3449C68.4181 43.4002 68.4181 43.4647 68.4181 43.52C68.4181 44.1284 68.6117 44.7276 68.962 45.2254C69.3308 45.6587 69.8654 45.9076 70.437 45.9076C70.5015 45.9076 70.5752 45.9076 70.6398 45.8983H70.6766C71.2943 45.8983 71.875 45.631 72.2899 45.1793C72.7139 44.6446 72.9444 43.9809 72.9444 43.2988C72.9444 43.2342 72.9444 43.1605 72.9444 43.096V37.4728H75.3227V47.7789L72.9536 47.7512L72.9259 47.7697Z" fill="black"></path>
<path fill-rule="evenodd" clip-rule="evenodd" d="M79.1023 37.5V38.7722C79.4526 38.3205 79.8951 37.9517 80.4113 37.7028C80.946 37.4355 81.536 37.2972 82.1352 37.2972C82.1628 37.2972 82.1905 37.2972 82.2181 37.2972C82.2919 37.2972 82.3656 37.2972 82.4302 37.2972C83.4811 37.2972 84.4859 37.7213 85.2233 38.4679C85.9239 39.2884 86.3111 40.3393 86.3111 41.4178C86.3111 41.51 86.3111 41.6114 86.3019 41.7036V47.8154H83.8959V41.9525C83.8959 41.9525 83.8959 41.8695 83.8959 41.8234C83.8959 41.1874 83.6839 40.5605 83.2875 40.0535C82.8819 39.611 82.3103 39.3621 81.7019 39.3621C81.6466 39.3621 81.5913 39.3621 81.536 39.3621H81.4991C80.863 39.3621 80.2638 39.6202 79.8306 40.0812C79.3697 40.5974 79.1208 41.2611 79.1208 41.9525C79.1208 42.017 79.1208 42.0908 79.1208 42.1553V47.8154H76.7424V37.5092H79.0931L79.1023 37.5Z" fill="black"></path>
<path fill-rule="evenodd" clip-rule="evenodd" d="M90.551 47.6128C89.9426 47.3823 89.3803 47.0228 88.9101 46.5711C87.8869 45.5663 87.3062 44.1927 87.3062 42.7547C87.3062 42.7086 87.3062 42.6625 87.3062 42.6256C87.3062 42.5795 87.3062 42.5427 87.3062 42.4966C87.3062 41.7591 87.4536 41.0216 87.7486 40.3395C88.016 39.7126 88.4031 39.1411 88.8917 38.6617C89.3618 38.21 89.9242 37.8505 90.5234 37.6108C91.1226 37.3804 91.7678 37.2605 92.4131 37.2513H92.4408C93.0676 37.2513 93.6945 37.3804 94.2752 37.6293C94.8283 37.8782 95.3077 38.2377 95.7041 38.6986V34.7531H98.1101V47.7879H95.7317V46.442C95.3446 46.9306 94.856 47.3178 94.2845 47.5759C93.7037 47.8524 93.0676 47.9999 92.4316 47.9999H92.3855C91.7586 47.9999 91.1318 47.8709 90.551 47.6312V47.6128ZM94.0171 45.5663C94.3859 45.4096 94.7177 45.1791 94.985 44.8841C95.2616 44.5799 95.4736 44.2388 95.6303 43.8609C95.7778 43.4829 95.8608 43.0773 95.8608 42.6717C95.8608 42.6533 95.8608 42.6348 95.8608 42.6164C95.8608 42.598 95.8608 42.5795 95.8608 42.5611C95.8608 42.1555 95.787 41.7591 95.6303 41.3811C95.4736 41.0032 95.2524 40.6621 94.985 40.3671C94.7085 40.0814 94.3766 39.8509 94.0171 39.6942C93.6299 39.5283 93.2059 39.4453 92.7819 39.4453C91.9522 39.4453 91.1502 39.7771 90.5602 40.3671C90.2745 40.6529 90.0532 40.994 89.9149 41.3627C89.749 41.7591 89.6661 42.1831 89.6661 42.6164C89.6661 43.0497 89.749 43.4737 89.9149 43.8701C90.0532 44.2573 90.2745 44.5984 90.5602 44.8933C90.8368 45.1883 91.1871 45.428 91.565 45.5755C91.943 45.7322 92.3578 45.8244 92.7726 45.8244C93.1967 45.8244 93.6115 45.7414 94.0079 45.5755H94.0171V45.5663Z" fill="black"></path>
</g>
<defs>
<clipPath id="clip0_4_42">
<rect width="117.248" height="48" fill="white"></rect>
</clipPath>
</defs>
</svg>