<svg width="118" height="48" viewBox="0 0 118 48" fill="none" xmlns="http://www.w3.org/2000/svg">
<g clip-path="url(#clip0_4_5)">
<path fill-rule="evenodd" clip-rule="evenodd" d="M9.59631 11.3662V28.6414L0 34.4029V0H9.93739L24.0046 8.4348L38.0626 0H48V5.60476L24.0046 20.0038L9.59631 11.3662Z" fill="#FE5E00"></path>
<path fill-rule="evenodd" clip-rule="evenodd" d="M38.4037 36.6428V19.3583L48 13.5969V47.9998H38.0626L24.0046 39.565L9.93739 47.9998H0V42.395L24.0046 27.9959L38.4037 36.6428Z" fill="#1677FF"></path>
<path fill-rule="evenodd" clip-rule="evenodd" d="M59.8822 17.4688L63.7724 22.88L67.8285 17.4688H70.0962V30.3284H67.6994V21.3129L63.754 26.6319L59.9007 21.3958V30.3284H57.5039V17.4688H59.8822Z" fill="white"></path>
<path fill-rule="evenodd" clip-rule="evenodd" d="M74.4106 30.1713C73.793 29.9408 73.2399 29.5906 72.7698 29.1389C72.2812 28.6595 71.8848 28.0787 71.6083 27.4519C71.3133 26.779 71.1658 26.0507 71.1658 25.3224C71.1658 25.2856 71.1658 25.2395 71.1658 25.1934C71.1658 25.1473 71.1658 25.1104 71.1658 25.0643C71.1658 24.3176 71.3133 23.5802 71.6083 22.898C71.8756 22.2712 72.2628 21.6996 72.7513 21.2295C73.2215 20.7778 73.7838 20.4183 74.3922 20.1786C74.9914 19.9481 75.6275 19.8283 76.2727 19.8283C76.2912 19.8283 76.3096 19.8283 76.3281 19.8283C76.9549 19.8283 77.5818 19.9574 78.1533 20.2155C78.7064 20.4552 79.195 20.8147 79.5821 21.2756V20.068H81.9605V30.3741H79.5821V29.0282C79.2042 29.5168 78.7064 29.904 78.1349 30.1529C77.5541 30.4294 76.918 30.5769 76.2727 30.5769H76.2359C75.6182 30.5769 75.0006 30.4479 74.4291 30.199L74.4014 30.1713H74.4106ZM77.8491 28.1064C78.2178 27.9497 78.5497 27.7192 78.817 27.4242C79.0936 27.12 79.3148 26.779 79.4715 26.401C79.619 26.0138 79.702 25.599 79.702 25.1842V25.1473C79.702 24.7325 79.6282 24.3269 79.4715 23.9397C79.3056 23.5617 79.0843 23.2207 78.817 22.9165C78.5497 22.6307 78.2178 22.4002 77.8491 22.2527C77.4711 22.096 77.0563 22.0038 76.6415 22.0038C76.2267 22.0038 75.821 22.0868 75.4339 22.2527C75.0559 22.4002 74.7148 22.6307 74.4383 22.9165C74.1525 23.2022 73.9313 23.5433 73.7838 23.9213C73.6179 24.3176 73.5349 24.7417 73.5349 25.175C73.5349 25.6082 73.6179 26.0323 73.7838 26.4287C73.9313 26.8066 74.1525 27.1569 74.4383 27.4519C74.7241 27.7377 75.0651 27.9589 75.4339 28.1064C75.8118 28.2631 76.2267 28.3553 76.6415 28.3553C77.0563 28.3553 77.4619 28.2723 77.8491 28.1064Z" fill="white"></path>
<path fill-rule="evenodd" clip-rule="evenodd" d="M85.7676 20.0502V21.5804C86.2009 20.6402 87.1412 20.0317 88.1736 20.0317C88.2566 20.0317 88.3303 20.0317 88.4041 20.041C88.4317 20.041 88.4502 20.041 88.4778 20.041C88.8005 20.041 89.1139 20.087 89.4273 20.17C89.6946 20.2438 89.962 20.3544 90.2201 20.4834L89.3259 22.7419C89.1323 22.6221 88.9387 22.5207 88.7267 22.4377C88.4686 22.3732 88.2013 22.3363 87.9432 22.3363C87.9247 22.3363 87.9063 22.3363 87.8878 22.3363C87.851 22.3363 87.8049 22.3363 87.768 22.3363C87.2241 22.3363 86.6987 22.5576 86.3207 22.9447C85.9612 23.4333 85.7676 24.0233 85.7676 24.6225C85.7676 24.7054 85.7676 24.7976 85.7768 24.8806V30.384H83.3708V20.0502H85.7768H85.7676Z" fill="white"></path>
<path fill-rule="evenodd" clip-rule="evenodd" d="M93.3818 17.3022V24.9903L97.7697 20.0216H100.618L96.6358 24.4833L100.756 30.3277H98.1016L95.0226 25.8937L93.3818 27.7097V30.3277H91.0034V17.3022H93.3818Z" fill="white"></path>
<path fill-rule="evenodd" clip-rule="evenodd" d="M103.329 30.1163C102.693 29.8582 102.103 29.471 101.624 28.9824C101.144 28.4939 100.766 27.9131 100.517 27.2771C100.25 26.6318 100.112 25.9312 100.112 25.2306V25.1476C100.112 24.4378 100.259 23.7372 100.536 23.0919C100.794 22.4558 101.172 21.8659 101.661 21.3865C102.149 20.8979 102.73 20.5108 103.366 20.2342C104.02 19.9577 104.73 19.8102 105.44 19.8102H105.468C105.468 19.8102 105.505 19.8102 105.523 19.8102C106.233 19.8102 106.933 19.9392 107.597 20.1974C108.224 20.4462 108.796 20.8242 109.266 21.3036C109.745 21.7829 110.123 22.3637 110.372 22.9905C110.63 23.6358 110.759 24.3364 110.759 25.037C110.759 25.0554 110.759 25.0831 110.759 25.1015V25.9957H102.37C102.509 26.6871 102.896 27.3139 103.449 27.7564C104.02 28.2081 104.73 28.457 105.468 28.457C105.486 28.457 105.505 28.457 105.523 28.457C105.551 28.457 105.578 28.457 105.597 28.457C106.187 28.457 106.767 28.2819 107.265 27.9592C107.754 27.6274 108.132 27.1757 108.371 26.6318L110.326 27.7564C109.892 28.5768 109.247 29.2682 108.464 29.766C107.625 30.273 106.648 30.5404 105.67 30.5404C105.624 30.5404 105.569 30.5404 105.523 30.5404H105.468C104.721 30.5404 103.984 30.3929 103.301 30.1163L103.329 30.0887V30.1163ZM103.587 22.5112C103.062 22.8891 102.675 23.433 102.481 24.0414H108.325C108.187 23.4053 107.837 22.843 107.33 22.4466C106.804 22.0963 106.187 21.912 105.56 21.912C105.532 21.912 105.495 21.912 105.468 21.912C105.449 21.912 105.44 21.912 105.422 21.912C104.767 21.912 104.14 22.124 103.615 22.5112H103.587Z" fill="white"></path>
<path fill-rule="evenodd" clip-rule="evenodd" d="M112.741 20.0493V18.4822L115.147 16.8413V20.0493H117.249V22.1787H115.147V26.032C115.147 26.0781 115.147 26.1334 115.147 26.1887C115.147 26.5021 115.175 26.8064 115.221 27.1106C115.248 27.3502 115.35 27.5715 115.525 27.7466C115.691 27.9126 115.921 28.0232 116.161 28.0508C116.465 28.0969 116.788 28.1246 117.101 28.1246C117.156 28.1246 117.212 28.1246 117.258 28.1246V30.3646H116.963C116.908 30.3646 116.852 30.3646 116.797 30.3646C116.179 30.3646 115.571 30.2909 114.972 30.1434C114.483 30.0328 114.041 29.7839 113.69 29.4244C113.349 29.0556 113.119 28.5947 113.027 28.1061C112.879 27.4977 112.805 26.8709 112.805 26.2348C112.805 26.1795 112.805 26.115 112.805 26.0597V22.1603H111.045V20.0585H112.75L112.741 20.0493Z" fill="white"></path>
<path fill-rule="evenodd" clip-rule="evenodd" d="M59.9748 -0.000183105L63.8742 5.41099L67.9211 -0.000183105H70.198V12.8594H67.8012V3.83465L63.8558 9.15365L59.9933 3.92684V12.8594H57.6057V-0.000183105H59.9748Z" fill="white"></path>
<path fill-rule="evenodd" clip-rule="evenodd" d="M74.5309 12.6473C73.8856 12.3892 73.3048 11.9928 72.8255 11.495C72.3369 11.0064 71.9497 10.4257 71.6916 9.78962C71.4151 9.13512 71.2676 8.43452 71.2676 7.72471V7.67862C71.2676 6.9688 71.4151 6.25899 71.6916 5.60449C72.5028 3.63176 74.4295 2.34119 76.5681 2.34119H76.6142C77.324 2.34119 78.0339 2.47946 78.6976 2.74679C79.3336 3.02335 79.9144 3.41052 80.403 3.88987C80.8823 4.38766 81.2695 4.96842 81.546 5.59527C81.8134 6.25899 81.9517 6.95958 81.9517 7.6694V7.70627C81.9517 7.70627 81.9517 7.75236 81.9517 7.7708C81.9517 9.16277 81.3986 10.5087 80.403 11.4858C79.3982 12.4906 78.0339 13.0529 76.6142 13.0529C75.8952 13.0529 75.1946 12.9054 74.5309 12.6289V12.6473ZM77.785 10.5824C78.1445 10.4257 78.4671 10.2044 78.7345 9.91868C79.0018 9.62369 79.223 9.28261 79.3705 8.91388C79.518 8.54514 79.601 8.14875 79.601 7.75236C79.601 7.73393 79.601 7.72471 79.601 7.70627C79.601 7.69705 79.601 7.67862 79.601 7.6694C79.601 7.25457 79.5272 6.84896 79.3705 6.47101C79.2138 6.1115 79.0018 5.77042 78.7345 5.48465C78.4671 5.19888 78.1445 4.96842 77.785 4.82093C77.4162 4.65499 77.0106 4.57203 76.605 4.57203C76.1994 4.57203 75.7938 4.65499 75.4251 4.82093C75.0655 4.97764 74.7429 5.19888 74.4756 5.48465C74.2082 5.77042 73.9962 6.1115 73.8395 6.47101C73.692 6.84896 73.609 7.24535 73.609 7.65096C73.609 7.6694 73.609 7.68784 73.609 7.70627C73.609 7.72471 73.609 7.75236 73.609 7.7708C73.609 8.15797 73.6828 8.54514 73.8395 8.91388C73.987 9.28261 74.199 9.62369 74.4756 9.91868C74.7429 10.2044 75.0655 10.4349 75.4251 10.5824C75.7938 10.7483 76.1994 10.8313 76.605 10.8313C77.0106 10.8313 77.4162 10.7483 77.785 10.5824Z" fill="white"></path>
<path fill-rule="evenodd" clip-rule="evenodd" d="M85.3345 2.55346V3.80715C85.6848 3.35545 86.1272 2.98672 86.6435 2.73782C87.1781 2.47049 87.7681 2.33221 88.3673 2.33221C88.3857 2.33221 88.4042 2.33221 88.4226 2.33221C88.4964 2.33221 88.5609 2.33221 88.6346 2.33221C89.6855 2.33221 90.6903 2.75626 91.4278 3.50295C92.1284 4.32338 92.5063 5.36505 92.5063 6.4436C92.5063 6.545 92.5063 6.64641 92.5063 6.73859V12.8504H90.1003V7.00592C90.1003 7.00592 90.1003 6.92296 90.1003 6.88608C90.1003 6.2408 89.8883 5.61395 89.4919 5.10694C89.0863 4.66446 88.5056 4.41556 87.9064 4.41556C87.8511 4.41556 87.805 4.41556 87.7497 4.41556C87.7312 4.41556 87.722 4.41556 87.7036 4.41556C87.0767 4.41556 86.4683 4.67368 86.0443 5.1346C85.5834 5.65082 85.3345 6.31455 85.3345 7.00592C85.3345 7.07045 85.3345 7.1442 85.3345 7.20873V12.8688H82.9285V2.55346H85.3437H85.3345Z" fill="white"></path>
<path fill-rule="evenodd" clip-rule="evenodd" d="M96.7746 12.6473C95.484 12.131 94.4608 11.1078 93.963 9.808C93.6957 9.15349 93.5574 8.4529 93.5574 7.74308V7.69699C93.5574 6.98718 93.7049 6.27736 93.9814 5.62286C94.2395 4.98679 94.6267 4.40604 95.1153 3.91746C95.6039 3.42889 96.1846 3.04172 96.8207 2.77439C97.466 2.49784 98.1666 2.35034 98.8764 2.35034H98.9132C98.9132 2.35034 98.9593 2.35034 98.9778 2.35034C99.6876 2.35034 100.388 2.4794 101.043 2.73751C101.67 2.98641 102.241 3.36436 102.711 3.84372C103.191 4.32307 103.569 4.90383 103.827 5.53068C104.085 6.17596 104.214 6.86734 104.214 7.56793C104.214 7.59559 104.214 7.62324 104.214 7.64168V8.54508H95.8343C95.9726 9.23646 96.3598 9.85409 96.9036 10.3058C97.466 10.7483 98.1666 10.9787 98.8856 10.9787C98.9225 10.9787 98.9686 10.9787 99.0054 10.9787C99.0331 10.9787 99.0607 10.9787 99.0792 10.9787C99.6692 10.9787 100.25 10.8036 100.748 10.4809C101.236 10.1491 101.614 9.69737 101.854 9.15349L103.808 10.2781C102.914 11.9927 101.135 13.0713 99.2082 13.0713C99.1345 13.0713 99.07 13.0713 98.9962 13.0713C98.9686 13.0713 98.9409 13.0713 98.9132 13.0713C98.1758 13.0713 97.4567 12.9238 96.7746 12.6473ZM97.0511 5.01445C96.5257 5.3924 96.1385 5.93628 95.9357 6.5447H101.78C101.642 5.90863 101.273 5.34631 100.757 4.95914C100.231 4.61806 99.6231 4.43369 98.9962 4.43369C98.9593 4.43369 98.9225 4.43369 98.8856 4.43369H98.8395C98.185 4.43369 97.5581 4.64571 97.0327 5.03288V5.00523L97.0511 5.01445Z" fill="white"></path>
<path fill-rule="evenodd" clip-rule="evenodd" d="M107.044 15.3848L108.288 12.3428L104.066 2.55286H106.601L109.468 9.49428L112.188 2.55286H114.686L109.45 15.3848H107.044Z" fill="white"></path>
<path fill-rule="evenodd" clip-rule="evenodd" d="M64.7776 34.9188V37.2049H59.8919V40.164H64.7776V42.4502H59.8919V47.7692H57.4951V34.9188H64.7776Z" fill="white"></path>
<path fill-rule="evenodd" clip-rule="evenodd" d="M72.9267 47.7696V46.562C72.604 46.9953 72.18 47.3456 71.6914 47.5853C71.1752 47.8249 70.6036 47.954 70.0321 47.954C70.0137 47.954 69.986 47.954 69.9676 47.954C69.903 47.954 69.8385 47.954 69.7832 47.954C68.76 47.954 67.7828 47.5299 67.0822 46.7833C66.3816 45.9628 66.0037 44.9119 66.0037 43.8334C66.0037 43.732 66.0037 43.6398 66.0129 43.5384V37.4819H68.4189V43.3448C68.4189 43.4001 68.4189 43.4646 68.4189 43.52C68.4189 44.1284 68.6125 44.7276 68.9628 45.2254C69.3315 45.6586 69.8662 45.9075 70.4377 45.9075C70.5022 45.9075 70.576 45.9075 70.6405 45.8983H70.6774C71.295 45.8983 71.8758 45.631 72.2906 45.1793C72.7146 44.6446 72.9451 43.9809 72.9451 43.2987C72.9451 43.2342 72.9451 43.1604 72.9451 43.0959V37.4727H75.3234V47.7788L72.9543 47.7512L72.9267 47.7696Z" fill="white"></path>
<path fill-rule="evenodd" clip-rule="evenodd" d="M79.1031 37.5001V38.7722C79.4534 38.3205 79.8958 37.9518 80.4121 37.7029C80.9467 37.4356 81.5367 37.2973 82.1359 37.2973C82.1636 37.2973 82.1912 37.2973 82.2189 37.2973C82.2926 37.2973 82.3664 37.2973 82.4309 37.2973C83.4818 37.2973 84.4866 37.7213 85.2241 38.468C85.9246 39.2885 86.3118 40.3394 86.3118 41.4179C86.3118 41.5101 86.3118 41.6115 86.3026 41.7037V47.8155H83.8966V41.9526C83.8966 41.9526 83.8966 41.8696 83.8966 41.8235C83.8966 41.1874 83.6846 40.5606 83.2882 40.0536C82.8826 39.6111 82.3111 39.3622 81.7026 39.3622C81.6473 39.3622 81.592 39.3622 81.5367 39.3622H81.4998C80.8638 39.3622 80.2646 39.6203 79.8313 40.0812C79.3704 40.5975 79.1215 41.2612 79.1215 41.9526C79.1215 42.0171 79.1215 42.0908 79.1215 42.1554V47.8155H76.7432V37.5093H79.0938L79.1031 37.5001Z" fill="white"></path>
<path fill-rule="evenodd" clip-rule="evenodd" d="M90.5518 47.6128C89.9433 47.3824 89.381 47.0229 88.9109 46.5712C87.8876 45.5664 87.3069 44.1928 87.3069 42.7548C87.3069 42.7087 87.3069 42.6626 87.3069 42.6257C87.3069 42.5796 87.3069 42.5427 87.3069 42.4967C87.3069 41.7592 87.4544 41.0217 87.7494 40.3396C88.0167 39.7127 88.4039 39.1412 88.8924 38.6618C89.3626 38.2101 89.9249 37.8506 90.5241 37.6109C91.1233 37.3805 91.7686 37.2606 92.4139 37.2514H92.4415C93.0684 37.2514 93.6952 37.3805 94.276 37.6294C94.8291 37.8783 95.3084 38.2378 95.7048 38.6987V34.7532H98.1108V47.788H95.7325V46.4421C95.3453 46.9307 94.8567 47.3179 94.2852 47.576C93.7044 47.8525 93.0684 48 92.4323 48H92.3862C91.7594 48 91.1325 47.871 90.5518 47.6313V47.6128ZM94.0178 45.5664C94.3866 45.4097 94.7184 45.1792 94.9858 44.8842C95.2623 44.58 95.4744 44.2389 95.6311 43.861C95.7786 43.483 95.8615 43.0774 95.8615 42.6718C95.8615 42.6534 95.8615 42.6349 95.8615 42.6165C95.8615 42.5981 95.8615 42.5796 95.8615 42.5612C95.8615 42.1556 95.7878 41.7592 95.6311 41.3812C95.4744 41.0033 95.2531 40.6622 94.9858 40.3672C94.7092 40.0814 94.3774 39.851 94.0178 39.6943C93.6307 39.5283 93.2066 39.4454 92.7826 39.4454C91.9529 39.4454 91.1509 39.7772 90.561 40.3672C90.2752 40.653 90.054 40.9941 89.9157 41.3628C89.7498 41.7592 89.6668 42.1832 89.6668 42.6165C89.6668 43.0498 89.7498 43.4738 89.9157 43.8702C90.054 44.2574 90.2752 44.5984 90.561 44.8934C90.8375 45.1884 91.1878 45.4281 91.5658 45.5756C91.9437 45.7323 92.3585 45.8245 92.7734 45.8245C93.1974 45.8245 93.6122 45.7415 94.0086 45.5756H94.0178V45.5664Z" fill="white"></path>
<path fill-rule="evenodd" clip-rule="evenodd" d="M59.8822 17.4688L63.7724 22.88L67.8285 17.4688H70.0962V30.3284H67.6994V21.3129L63.754 26.6319L59.9007 21.3958V30.3284H57.5039V17.4688H59.8822Z" fill="white"></path>
<path fill-rule="evenodd" clip-rule="evenodd" d="M74.4106 30.1713C73.793 29.9408 73.2399 29.5906 72.7698 29.1389C72.2812 28.6595 71.8848 28.0787 71.6083 27.4519C71.3133 26.779 71.1658 26.0507 71.1658 25.3224C71.1658 25.2856 71.1658 25.2395 71.1658 25.1934C71.1658 25.1473 71.1658 25.1104 71.1658 25.0643C71.1658 24.3176 71.3133 23.5802 71.6083 22.898C71.8756 22.2712 72.2628 21.6996 72.7513 21.2295C73.2215 20.7778 73.7838 20.4183 74.3922 20.1786C74.9914 19.9481 75.6275 19.8283 76.2727 19.8283C76.2912 19.8283 76.3096 19.8283 76.3281 19.8283C76.9549 19.8283 77.5818 19.9574 78.1533 20.2155C78.7064 20.4552 79.195 20.8147 79.5821 21.2756V20.068H81.9605V30.3741H79.5821V29.0282C79.2042 29.5168 78.7064 29.904 78.1349 30.1529C77.5541 30.4294 76.918 30.5769 76.2727 30.5769H76.2359C75.6182 30.5769 75.0006 30.4479 74.4291 30.199L74.4014 30.1713H74.4106ZM77.8491 28.1064C78.2178 27.9497 78.5497 27.7192 78.817 27.4242C79.0936 27.12 79.3148 26.779 79.4715 26.401C79.619 26.0138 79.702 25.599 79.702 25.1842V25.1473C79.702 24.7325 79.6282 24.3269 79.4715 23.9397C79.3056 23.5617 79.0843 23.2207 78.817 22.9165C78.5497 22.6307 78.2178 22.4002 77.8491 22.2527C77.4711 22.096 77.0563 22.0038 76.6415 22.0038C76.2267 22.0038 75.821 22.0868 75.4339 22.2527C75.0559 22.4002 74.7148 22.6307 74.4383 22.9165C74.1525 23.2022 73.9313 23.5433 73.7838 23.9213C73.6179 24.3176 73.5349 24.7417 73.5349 25.175C73.5349 25.6082 73.6179 26.0323 73.7838 26.4287C73.9313 26.8066 74.1525 27.1569 74.4383 27.4519C74.7241 27.7377 75.0651 27.9589 75.4339 28.1064C75.8118 28.2631 76.2267 28.3553 76.6415 28.3553C77.0563 28.3553 77.4619 28.2723 77.8491 28.1064Z" fill="white"></path>
<path fill-rule="evenodd" clip-rule="evenodd" d="M85.7676 20.0502V21.5804C86.2009 20.6402 87.1412 20.0317 88.1736 20.0317C88.2566 20.0317 88.3303 20.0317 88.4041 20.041C88.4317 20.041 88.4502 20.041 88.4778 20.041C88.8005 20.041 89.1139 20.087 89.4273 20.17C89.6946 20.2438 89.962 20.3544 90.2201 20.4834L89.3259 22.7419C89.1323 22.6221 88.9387 22.5207 88.7267 22.4377C88.4686 22.3732 88.2013 22.3363 87.9432 22.3363C87.9247 22.3363 87.9063 22.3363 87.8878 22.3363C87.851 22.3363 87.8049 22.3363 87.768 22.3363C87.2241 22.3363 86.6987 22.5576 86.3207 22.9447C85.9612 23.4333 85.7676 24.0233 85.7676 24.6225C85.7676 24.7054 85.7676 24.7976 85.7768 24.8806V30.384H83.3708V20.0502H85.7768H85.7676Z" fill="white"></path>
<path fill-rule="evenodd" clip-rule="evenodd" d="M93.3818 17.3022V24.9903L97.7697 20.0216H100.618L96.6358 24.4833L100.756 30.3277H98.1016L95.0226 25.8937L93.3818 27.7097V30.3277H91.0034V17.3022H93.3818Z" fill="white"></path>
<path fill-rule="evenodd" clip-rule="evenodd" d="M103.329 30.1163C102.693 29.8582 102.103 29.471 101.624 28.9824C101.144 28.4939 100.766 27.9131 100.517 27.2771C100.25 26.6318 100.112 25.9312 100.112 25.2306V25.1476C100.112 24.4378 100.259 23.7372 100.536 23.0919C100.794 22.4558 101.172 21.8659 101.661 21.3865C102.149 20.8979 102.73 20.5108 103.366 20.2342C104.02 19.9577 104.73 19.8102 105.44 19.8102H105.468C105.468 19.8102 105.505 19.8102 105.523 19.8102C106.233 19.8102 106.933 19.9392 107.597 20.1974C108.224 20.4462 108.796 20.8242 109.266 21.3036C109.745 21.7829 110.123 22.3637 110.372 22.9905C110.63 23.6358 110.759 24.3364 110.759 25.037C110.759 25.0554 110.759 25.0831 110.759 25.1015V25.9957H102.37C102.509 26.6871 102.896 27.3139 103.449 27.7564C104.02 28.2081 104.73 28.457 105.468 28.457C105.486 28.457 105.505 28.457 105.523 28.457C105.551 28.457 105.578 28.457 105.597 28.457C106.187 28.457 106.767 28.2819 107.265 27.9592C107.754 27.6274 108.132 27.1757 108.371 26.6318L110.326 27.7564C109.892 28.5768 109.247 29.2682 108.464 29.766C107.625 30.273 106.648 30.5404 105.67 30.5404C105.624 30.5404 105.569 30.5404 105.523 30.5404H105.468C104.721 30.5404 103.984 30.3929 103.301 30.1163L103.329 30.0887V30.1163ZM103.587 22.5112C103.062 22.8891 102.675 23.433 102.481 24.0414H108.325C108.187 23.4053 107.837 22.843 107.33 22.4466C106.804 22.0963 106.187 21.912 105.56 21.912C105.532 21.912 105.495 21.912 105.468 21.912C105.449 21.912 105.44 21.912 105.422 21.912C104.767 21.912 104.14 22.124 103.615 22.5112H103.587Z" fill="white"></path>
<path fill-rule="evenodd" clip-rule="evenodd" d="M112.741 20.0493V18.4822L115.147 16.8413V20.0493H117.249V22.1787H115.147V26.032C115.147 26.0781 115.147 26.1334 115.147 26.1887C115.147 26.5021 115.175 26.8064 115.221 27.1106C115.248 27.3502 115.35 27.5715 115.525 27.7466C115.691 27.9126 115.921 28.0232 116.161 28.0508C116.465 28.0969 116.788 28.1246 117.101 28.1246C117.156 28.1246 117.212 28.1246 117.258 28.1246V30.3646H116.963C116.908 30.3646 116.852 30.3646 116.797 30.3646C116.179 30.3646 115.571 30.2909 114.972 30.1434C114.483 30.0328 114.041 29.7839 113.69 29.4244C113.349 29.0556 113.119 28.5947 113.027 28.1061C112.879 27.4977 112.805 26.8709 112.805 26.2348C112.805 26.1795 112.805 26.115 112.805 26.0597V22.1603H111.045V20.0585H112.75L112.741 20.0493Z" fill="white"></path>
<path fill-rule="evenodd" clip-rule="evenodd" d="M59.9748 -0.000183105L63.8742 5.41099L67.9211 -0.000183105H70.198V12.8594H67.8012V3.83465L63.8558 9.15365L59.9933 3.92684V12.8594H57.6057V-0.000183105H59.9748Z" fill="white"></path>
<path fill-rule="evenodd" clip-rule="evenodd" d="M74.5309 12.6473C73.8856 12.3892 73.3048 11.9928 72.8255 11.495C72.3369 11.0064 71.9497 10.4257 71.6916 9.78962C71.4151 9.13512 71.2676 8.43452 71.2676 7.72471V7.67862C71.2676 6.9688 71.4151 6.25899 71.6916 5.60449C72.5028 3.63176 74.4295 2.34119 76.5681 2.34119H76.6142C77.324 2.34119 78.0339 2.47946 78.6976 2.74679C79.3336 3.02335 79.9144 3.41052 80.403 3.88987C80.8823 4.38766 81.2695 4.96842 81.546 5.59527C81.8134 6.25899 81.9517 6.95958 81.9517 7.6694V7.70627C81.9517 7.70627 81.9517 7.75236 81.9517 7.7708C81.9517 9.16277 81.3986 10.5087 80.403 11.4858C79.3982 12.4906 78.0339 13.0529 76.6142 13.0529C75.8952 13.0529 75.1946 12.9054 74.5309 12.6289V12.6473ZM77.785 10.5824C78.1445 10.4257 78.4671 10.2044 78.7345 9.91868C79.0018 9.62369 79.223 9.28261 79.3705 8.91388C79.518 8.54514 79.601 8.14875 79.601 7.75236C79.601 7.73393 79.601 7.72471 79.601 7.70627C79.601 7.69705 79.601 7.67862 79.601 7.6694C79.601 7.25457 79.5272 6.84896 79.3705 6.47101C79.2138 6.1115 79.0018 5.77042 78.7345 5.48465C78.4671 5.19888 78.1445 4.96842 77.785 4.82093C77.4162 4.65499 77.0106 4.57203 76.605 4.57203C76.1994 4.57203 75.7938 4.65499 75.4251 4.82093C75.0655 4.97764 74.7429 5.19888 74.4756 5.48465C74.2082 5.77042 73.9962 6.1115 73.8395 6.47101C73.692 6.84896 73.609 7.24535 73.609 7.65096C73.609 7.6694 73.609 7.68784 73.609 7.70627C73.609 7.72471 73.609 7.75236 73.609 7.7708C73.609 8.15797 73.6828 8.54514 73.8395 8.91388C73.987 9.28261 74.199 9.62369 74.4756 9.91868C74.7429 10.2044 75.0655 10.4349 75.4251 10.5824C75.7938 10.7483 76.1994 10.8313 76.605 10.8313C77.0106 10.8313 77.4162 10.7483 77.785 10.5824Z" fill="white"></path>
<path fill-rule="evenodd" clip-rule="evenodd" d="M85.3345 2.55346V3.80715C85.6848 3.35545 86.1272 2.98672 86.6435 2.73782C87.1781 2.47049 87.7681 2.33221 88.3673 2.33221C88.3857 2.33221 88.4042 2.33221 88.4226 2.33221C88.4964 2.33221 88.5609 2.33221 88.6346 2.33221C89.6855 2.33221 90.6903 2.75626 91.4278 3.50295C92.1284 4.32338 92.5063 5.36505 92.5063 6.4436C92.5063 6.545 92.5063 6.64641 92.5063 6.73859V12.8504H90.1003V7.00592C90.1003 7.00592 90.1003 6.92296 90.1003 6.88608C90.1003 6.2408 89.8883 5.61395 89.4919 5.10694C89.0863 4.66446 88.5056 4.41556 87.9064 4.41556C87.8511 4.41556 87.805 4.41556 87.7497 4.41556C87.7312 4.41556 87.722 4.41556 87.7036 4.41556C87.0767 4.41556 86.4683 4.67368 86.0443 5.1346C85.5834 5.65082 85.3345 6.31455 85.3345 7.00592C85.3345 7.07045 85.3345 7.1442 85.3345 7.20873V12.8688H82.9285V2.55346H85.3437H85.3345Z" fill="white"></path>
<path fill-rule="evenodd" clip-rule="evenodd" d="M96.7746 12.6473C95.484 12.131 94.4608 11.1078 93.963 9.808C93.6957 9.15349 93.5574 8.4529 93.5574 7.74308V7.69699C93.5574 6.98718 93.7049 6.27736 93.9814 5.62286C94.2395 4.98679 94.6267 4.40604 95.1153 3.91746C95.6039 3.42889 96.1846 3.04172 96.8207 2.77439C97.466 2.49784 98.1666 2.35034 98.8764 2.35034H98.9132C98.9132 2.35034 98.9593 2.35034 98.9778 2.35034C99.6876 2.35034 100.388 2.4794 101.043 2.73751C101.67 2.98641 102.241 3.36436 102.711 3.84372C103.191 4.32307 103.569 4.90383 103.827 5.53068C104.085 6.17596 104.214 6.86734 104.214 7.56793C104.214 7.59559 104.214 7.62324 104.214 7.64168V8.54508H95.8343C95.9726 9.23646 96.3598 9.85409 96.9036 10.3058C97.466 10.7483 98.1666 10.9787 98.8856 10.9787C98.9225 10.9787 98.9686 10.9787 99.0054 10.9787C99.0331 10.9787 99.0607 10.9787 99.0792 10.9787C99.6692 10.9787 100.25 10.8036 100.748 10.4809C101.236 10.1491 101.614 9.69737 101.854 9.15349L103.808 10.2781C102.914 11.9927 101.135 13.0713 99.2082 13.0713C99.1345 13.0713 99.07 13.0713 98.9962 13.0713C98.9686 13.0713 98.9409 13.0713 98.9132 13.0713C98.1758 13.0713 97.4567 12.9238 96.7746 12.6473ZM97.0511 5.01445C96.5257 5.3924 96.1385 5.93628 95.9357 6.5447H101.78C101.642 5.90863 101.273 5.34631 100.757 4.95914C100.231 4.61806 99.6231 4.43369 98.9962 4.43369C98.9593 4.43369 98.9225 4.43369 98.8856 4.43369H98.8395C98.185 4.43369 97.5581 4.64571 97.0327 5.03288V5.00523L97.0511 5.01445Z" fill="white"></path>
<path fill-rule="evenodd" clip-rule="evenodd" d="M107.044 15.3848L108.288 12.3428L104.066 2.55286H106.601L109.468 9.49428L112.188 2.55286H114.686L109.45 15.3848H107.044Z" fill="white"></path>
<path fill-rule="evenodd" clip-rule="evenodd" d="M64.7776 34.9188V37.2049H59.8919V40.164H64.7776V42.4502H59.8919V47.7692H57.4951V34.9188H64.7776Z" fill="white"></path>
<path fill-rule="evenodd" clip-rule="evenodd" d="M72.9267 47.7696V46.562C72.604 46.9953 72.18 47.3456 71.6914 47.5853C71.1752 47.8249 70.6036 47.954 70.0321 47.954C70.0137 47.954 69.986 47.954 69.9676 47.954C69.903 47.954 69.8385 47.954 69.7832 47.954C68.76 47.954 67.7828 47.5299 67.0822 46.7833C66.3816 45.9628 66.0037 44.9119 66.0037 43.8334C66.0037 43.732 66.0037 43.6398 66.0129 43.5384V37.4819H68.4189V43.3448C68.4189 43.4001 68.4189 43.4646 68.4189 43.52C68.4189 44.1284 68.6125 44.7276 68.9628 45.2254C69.3315 45.6586 69.8662 45.9075 70.4377 45.9075C70.5022 45.9075 70.576 45.9075 70.6405 45.8983H70.6774C71.295 45.8983 71.8758 45.631 72.2906 45.1793C72.7146 44.6446 72.9451 43.9809 72.9451 43.2987C72.9451 43.2342 72.9451 43.1604 72.9451 43.0959V37.4727H75.3234V47.7788L72.9543 47.7512L72.9267 47.7696Z" fill="white"></path>
<path fill-rule="evenodd" clip-rule="evenodd" d="M79.1031 37.5001V38.7722C79.4534 38.3205 79.8958 37.9518 80.4121 37.7029C80.9467 37.4356 81.5367 37.2973 82.1359 37.2973C82.1636 37.2973 82.1912 37.2973 82.2189 37.2973C82.2926 37.2973 82.3664 37.2973 82.4309 37.2973C83.4818 37.2973 84.4866 37.7213 85.2241 38.468C85.9246 39.2885 86.3118 40.3394 86.3118 41.4179C86.3118 41.5101 86.3118 41.6115 86.3026 41.7037V47.8155H83.8966V41.9526C83.8966 41.9526 83.8966 41.8696 83.8966 41.8235C83.8966 41.1874 83.6846 40.5606 83.2882 40.0536C82.8826 39.6111 82.3111 39.3622 81.7026 39.3622C81.6473 39.3622 81.592 39.3622 81.5367 39.3622H81.4998C80.8638 39.3622 80.2646 39.6203 79.8313 40.0812C79.3704 40.5975 79.1215 41.2612 79.1215 41.9526C79.1215 42.0171 79.1215 42.0908 79.1215 42.1554V47.8155H76.7432V37.5093H79.0938L79.1031 37.5001Z" fill="white"></path>
<path fill-rule="evenodd" clip-rule="evenodd" d="M90.5518 47.6128C89.9433 47.3824 89.381 47.0229 88.9109 46.5712C87.8876 45.5664 87.3069 44.1928 87.3069 42.7548C87.3069 42.7087 87.3069 42.6626 87.3069 42.6257C87.3069 42.5796 87.3069 42.5427 87.3069 42.4967C87.3069 41.7592 87.4544 41.0217 87.7494 40.3396C88.0167 39.7127 88.4039 39.1412 88.8924 38.6618C89.3626 38.2101 89.9249 37.8506 90.5241 37.6109C91.1233 37.3805 91.7686 37.2606 92.4139 37.2514H92.4415C93.0684 37.2514 93.6952 37.3805 94.276 37.6294C94.8291 37.8783 95.3084 38.2378 95.7048 38.6987V34.7532H98.1108V47.788H95.7325V46.4421C95.3453 46.9307 94.8567 47.3179 94.2852 47.576C93.7044 47.8525 93.0684 48 92.4323 48H92.3862C91.7594 48 91.1325 47.871 90.5518 47.6313V47.6128ZM94.0178 45.5664C94.3866 45.4097 94.7184 45.1792 94.9858 44.8842C95.2623 44.58 95.4744 44.2389 95.6311 43.861C95.7786 43.483 95.8615 43.0774 95.8615 42.6718C95.8615 42.6534 95.8615 42.6349 95.8615 42.6165C95.8615 42.5981 95.8615 42.5796 95.8615 42.5612C95.8615 42.1556 95.7878 41.7592 95.6311 41.3812C95.4744 41.0033 95.2531 40.6622 94.9858 40.3672C94.7092 40.0814 94.3774 39.851 94.0178 39.6943C93.6307 39.5283 93.2066 39.4454 92.7826 39.4454C91.9529 39.4454 91.1509 39.7772 90.561 40.3672C90.2752 40.653 90.054 40.9941 89.9157 41.3628C89.7498 41.7592 89.6668 42.1832 89.6668 42.6165C89.6668 43.0498 89.7498 43.4738 89.9157 43.8702C90.054 44.2574 90.2752 44.5984 90.561 44.8934C90.8375 45.1884 91.1878 45.4281 91.5658 45.5756C91.9437 45.7323 92.3585 45.8245 92.7734 45.8245C93.1974 45.8245 93.6122 45.7415 94.0086 45.5756H94.0178V45.5664Z" fill="white"></path>
</g>
<defs>
<clipPath id="clip0_4_5">
<rect width="117.248" height="48" fill="white"></rect>
</clipPath>
</defs>
</svg>